<svg width="33" height="33" viewBox="0 0 33 33" fill="none" xmlns="http://www.w3.org/2000/svg">
<path d="M8.04375 23.5125C9.2125 22.6187 10.5188 21.9141 11.9625 21.3984C13.4063 20.8828 14.9187 20.625 16.5 20.625C18.0813 20.625 19.5938 20.8828 21.0375 21.3984C22.4813 21.9141 23.7875 22.6187 24.9562 23.5125C25.7583 22.5729 26.3828 21.5073 26.8297 20.3156C27.2766 19.124 27.5 17.8521 27.5 16.5C27.5 13.4521 26.4286 10.8568 24.2859 8.71406C22.1432 6.57135 19.5479 5.5 16.5 5.5C13.4521 5.5 10.8568 6.57135 8.71406 8.71406C6.57135 10.8568 5.5 13.4521 5.5 16.5C5.5 17.8521 5.72344 19.124 6.17031 20.3156C6.61719 21.5073 7.24167 22.5729 8.04375 23.5125ZM16.5 17.875C15.1479 17.875 14.0078 17.4109 13.0797 16.4828C12.1516 15.5547 11.6875 14.4146 11.6875 13.0625C11.6875 11.7104 12.1516 10.5703 13.0797 9.64219C14.0078 8.71406 15.1479 8.25 16.5 8.25C17.8521 8.25 18.9922 8.71406 19.9203 9.64219C20.8484 10.5703 21.3125 11.7104 21.3125 13.0625C21.3125 14.4146 20.8484 15.5547 19.9203 16.4828C18.9922 17.4109 17.8521 17.875 16.5 17.875ZM16.5 30.25C14.5979 30.25 12.8104 29.8891 11.1375 29.1672C9.46458 28.4453 8.00938 27.4656 6.77187 26.2281C5.53437 24.9906 4.55469 23.5354 3.83281 21.8625C3.11094 20.1896 2.75 18.4021 2.75 16.5C2.75 14.5979 3.11094 12.8104 3.83281 11.1375C4.55469 9.46458 5.53437 8.00938 6.77187 6.77187C8.00938 5.53437 9.46458 4.55469 11.1375 3.83281C12.8104 3.11094 14.5979 2.75 16.5 2.75C18.4021 2.75 20.1896 3.11094 21.8625 3.83281C23.5354 4.55469 24.9906 5.53437 26.2281 6.77187C27.4656 8.00938 28.4453 9.46458 29.1672 11.1375C29.8891 12.8104 30.25 14.5979 30.25 16.5C30.25 18.4021 29.8891 20.1896 29.1672 21.8625C28.4453 23.5354 27.4656 24.9906 26.2281 26.2281C24.9906 27.4656 23.5354 28.4453 21.8625 29.1672C20.1896 29.8891 18.4021 30.25 16.5 30.25Z" fill="#62CCEF"/>
</svg>
