<svg width="68" height="62" viewBox="0 0 68 62" fill="none" xmlns="http://www.w3.org/2000/svg">
<rect x="13" width="42" height="43" stroke="black"/>
<path d="M23.2375 30.6372C24.725 29.4726 26.3875 28.5544 28.225 27.8825C30.0625 27.2106 31.9875 26.8747 34 26.8747C36.0125 26.8747 37.9375 27.2106 39.775 27.8825C41.6125 28.5544 43.275 29.4726 44.7625 30.6372C45.7833 29.4129 46.5781 28.0243 47.1469 26.4715C47.7156 24.9188 48 23.2615 48 21.4997C48 17.5281 46.6365 14.1464 43.9094 11.3544C41.1823 8.56235 37.8792 7.16634 34 7.16634C30.1208 7.16634 26.8177 8.56235 24.0906 11.3544C21.3635 14.1464 20 17.5281 20 21.4997C20 23.2615 20.2844 24.9188 20.8531 26.4715C21.4219 28.0243 22.2167 29.4129 23.2375 30.6372ZM34 23.2913C32.2792 23.2913 30.8281 22.6867 29.6469 21.4773C28.4656 20.2679 27.875 18.7823 27.875 17.0205C27.875 15.2587 28.4656 13.7731 29.6469 12.5637C30.8281 11.3544 32.2792 10.7497 34 10.7497C35.7208 10.7497 37.1719 11.3544 38.3531 12.5637C39.5344 13.7731 40.125 15.2587 40.125 17.0205C40.125 18.7823 39.5344 20.2679 38.3531 21.4773C37.1719 22.6867 35.7208 23.2913 34 23.2913ZM34 39.4163C31.5792 39.4163 29.3042 38.946 27.175 38.0054C25.0458 37.0648 23.1937 35.7882 21.6187 34.1757C20.0437 32.5632 18.7969 30.667 17.8781 28.4872C16.9594 26.3073 16.5 23.9781 16.5 21.4997C16.5 19.0212 16.9594 16.692 17.8781 14.5122C18.7969 12.3323 20.0437 10.4361 21.6187 8.82363C23.1937 7.21113 25.0458 5.93457 27.175 4.99395C29.3042 4.05332 31.5792 3.58301 34 3.58301C36.4208 3.58301 38.6958 4.05332 40.825 4.99395C42.9542 5.93457 44.8063 7.21113 46.3813 8.82363C47.9563 10.4361 49.2031 12.3323 50.1219 14.5122C51.0406 16.692 51.5 19.0212 51.5 21.4997C51.5 23.9781 51.0406 26.3073 50.1219 28.4872C49.2031 30.667 47.9563 32.5632 46.3813 34.1757C44.8063 35.7882 42.9542 37.0648 40.825 38.0054C38.6958 38.946 36.4208 39.4163 34 39.4163Z" fill="#666666"/>
<path d="M5.22646 53.26H5.52646C5.93646 53.26 6.14146 53.075 6.14146 52.705V47.605C6.14146 47.235 5.93646 47.05 5.52646 47.05H5.22646V45.295H10.6115C11.7615 45.295 12.6565 45.56 13.2965 46.09C13.9465 46.62 14.2715 47.405 14.2715 48.445C14.2715 49.485 13.9415 50.29 13.2815 50.86C12.6315 51.42 11.7365 51.7 10.5965 51.7H8.91646V52.705C8.91646 53.075 9.12146 53.26 9.53147 53.26H9.83147V55H5.22646V53.26ZM10.2215 49.945C10.6815 49.945 11.0115 49.825 11.2115 49.585C11.4215 49.345 11.5265 48.965 11.5265 48.445C11.5265 47.925 11.4265 47.565 11.2265 47.365C11.0265 47.155 10.6915 47.05 10.2215 47.05H8.91646V49.945H10.2215ZM14.0448 53.26H14.3598C14.7698 53.26 14.9748 53.075 14.9748 52.705V47.605C14.9748 47.235 14.7698 47.05 14.3598 47.05H14.0448V45.295H19.4298C20.5798 45.295 21.4798 45.56 22.1298 46.09C22.7798 46.62 23.1048 47.405 23.1048 48.445C23.1048 49.775 22.4898 50.74 21.2598 51.34L22.1598 52.855C22.2398 53.005 22.3398 53.11 22.4598 53.17C22.5898 53.23 22.7648 53.26 22.9848 53.26H23.2248V55H19.2948V53.26H19.7748L18.8448 51.685H17.7498V52.78C17.7498 52.96 17.7798 53.085 17.8398 53.155C17.9098 53.225 18.0298 53.26 18.1998 53.26H18.3798V55H14.0448V53.26ZM19.0398 49.945C19.5098 49.945 19.8448 49.825 20.0448 49.585C20.2548 49.345 20.3598 48.965 20.3598 48.445C20.3598 47.925 20.2548 47.565 20.0448 47.365C19.8448 47.155 19.5098 47.05 19.0398 47.05H17.7498V49.945H19.0398ZM27.9415 55.225C26.3215 55.225 25.1165 54.81 24.3265 53.98C23.5365 53.14 23.1415 51.875 23.1415 50.185C23.1415 48.465 23.5265 47.185 24.2965 46.345C25.0665 45.495 26.2815 45.07 27.9415 45.07C29.6015 45.07 30.8165 45.495 31.5865 46.345C32.3565 47.185 32.7415 48.465 32.7415 50.185C32.7415 51.875 32.3465 53.14 31.5565 53.98C30.7665 54.81 29.5615 55.225 27.9415 55.225ZM27.9415 53.47C28.4515 53.47 28.8515 53.365 29.1415 53.155C29.4415 52.935 29.6565 52.59 29.7865 52.12C29.9265 51.64 29.9965 50.995 29.9965 50.185C29.9965 49.345 29.9265 48.685 29.7865 48.205C29.6565 47.715 29.4415 47.365 29.1415 47.155C28.8515 46.935 28.4515 46.825 27.9415 46.825C27.4315 46.825 27.0265 46.935 26.7265 47.155C26.4365 47.365 26.2215 47.715 26.0815 48.205C25.9515 48.685 25.8865 49.345 25.8865 50.185C25.8865 50.995 25.9515 51.64 26.0815 52.12C26.2215 52.59 26.4365 52.935 26.7265 53.155C27.0265 53.365 27.4315 53.47 27.9415 53.47ZM33.1903 53.26H33.5053C33.9153 53.26 34.1203 53.06 34.1203 52.66V47.605C34.1203 47.235 33.9153 47.05 33.5053 47.05H33.1903V45.295H40.9603V47.815H38.4403V47.62C38.4403 47.23 38.2353 47.035 37.8253 47.035H36.8953V49.285H38.6203V51.025H36.8953V52.705C36.8953 53.075 37.0953 53.26 37.4953 53.26H37.8103V55H33.1903V53.26ZM41.4081 53.26H41.7081C41.9281 53.26 42.0831 53.21 42.1731 53.11C42.2731 53.01 42.3231 52.86 42.3231 52.66V47.605C42.3231 47.235 42.1181 47.05 41.7081 47.05H41.4081V45.295H46.0131V47.05H45.7131C45.3031 47.05 45.0981 47.235 45.0981 47.605V52.705C45.0981 53.075 45.3031 53.26 45.7131 53.26H46.0131V55H41.4081V53.26ZM46.4618 53.26H46.7768C47.1868 53.26 47.3918 53.06 47.3918 52.66V47.605C47.3918 47.235 47.1868 47.05 46.7768 47.05H46.4618V45.295H51.0818V47.05H50.7668C50.3668 47.05 50.1668 47.235 50.1668 47.605V53.26H51.0968C51.5068 53.26 51.7118 53.06 51.7118 52.66V52.015H54.2318V55H46.4618V53.26ZM54.0058 53.26H54.3208C54.7308 53.26 54.9358 53.06 54.9358 52.66V47.605C54.9358 47.235 54.7308 47.05 54.3208 47.05H54.0058V45.295H61.7758V47.815H59.2558V47.62C59.2558 47.23 59.0508 47.035 58.6408 47.035H57.7108V49.285H59.4358V51.025H57.7108V53.26H58.6408C59.0508 53.26 59.2558 53.06 59.2558 52.66V52.48H61.7758V55H54.0058V53.26Z" fill="#666666"/>
</svg>
