<svg width="35" height="35" viewBox="0 0 35 35" fill="none" xmlns="http://www.w3.org/2000/svg">
<path d="M20.0229 30.6253C19.7665 31.0673 19.3985 31.4342 18.9557 31.6892C18.513 31.9443 18.011 32.0785 17.5 32.0785C16.989 32.0785 16.487 31.9443 16.0443 31.6892C15.6015 31.4342 15.2335 31.0673 14.9771 30.6253M26.25 11.667C26.25 9.34635 25.3281 7.12075 23.6872 5.47981C22.0462 3.83886 19.8206 2.91699 17.5 2.91699C15.1794 2.91699 12.9538 3.83886 11.3128 5.47981C9.67187 7.12075 8.75 9.34635 8.75 11.667C8.75 21.8753 4.375 24.792 4.375 24.792H30.625C30.625 24.792 26.25 21.8753 26.25 11.667Z" stroke="#62CCEF" stroke-width="4" stroke-linecap="round" stroke-linejoin="round"/>
</svg>
