<svg width="27" height="27" viewBox="0 0 27 27" fill="none" xmlns="http://www.w3.org/2000/svg">
<path d="M12.625 2C14.2749 1.9957 15.9024 2.38116 17.375 3.125C19.1397 4.00696 20.624 5.36281 21.6616 7.04069C22.6993 8.71856 23.2493 10.6522 23.25 12.625C23.2543 14.2748 22.8689 15.9024 22.125 17.375L24.5 24.5L17.375 22.125C15.9024 22.8688 14.2749 23.2543 12.625 23.25C10.6522 23.2492 8.7186 22.6992 7.04072 21.6616C5.36285 20.624 4.00699 19.1397 3.12504 17.375C2.3812 15.9024 1.99573 14.2748 2.00004 12.625V12C2.14378 9.39457 3.24349 6.9337 5.08861 5.08857C6.93373 3.24345 9.3946 2.14374 12 2H12.625Z" stroke="black" stroke-width="4" stroke-linecap="round" stroke-linejoin="round"/>
</svg>
