<svg width="31" height="34" viewBox="0 0 31 34" fill="none" xmlns="http://www.w3.org/2000/svg">
<path d="M17.6479 29.7083C17.3915 30.1503 17.0235 30.5172 16.5807 30.7722C16.138 31.0273 15.636 31.1615 15.125 31.1615C14.614 31.1615 14.112 31.0273 13.6693 30.7722C13.2265 30.5172 12.8585 30.1503 12.6021 29.7083M23.875 10.75C23.875 8.42936 22.9531 6.20376 21.3122 4.56282C19.6712 2.92187 17.4456 2 15.125 2C12.8044 2 10.5788 2.92187 8.93782 4.56282C7.29687 6.20376 6.375 8.42936 6.375 10.75C6.375 20.9583 2 23.875 2 23.875H28.25C28.25 23.875 23.875 20.9583 23.875 10.75Z" stroke="black" stroke-width="4" stroke-linecap="round" stroke-linejoin="round"/>
</svg>
