<svg width="71" height="68" viewBox="0 0 71 68" fill="none" xmlns="http://www.w3.org/2000/svg">
<path d="M32.1667 7C34.3665 6.99427 36.5365 7.50822 38.5 8.5C40.853 9.67595 42.832 11.4838 44.2155 13.7209C45.599 15.9581 46.3324 18.5363 46.3334 21.1667C46.3391 23.3664 45.8252 25.5365 44.8334 27.5L48 37L38.5 33.8333C36.5365 34.8251 34.3665 35.3391 32.1667 35.3333C29.5363 35.3323 26.9581 34.599 24.721 33.2155C22.4838 31.832 20.676 29.8529 19.5 27.5C18.5083 25.5365 17.9943 23.3664 18 21.1667V20.3333C18.1917 16.8594 19.658 13.5783 22.1181 11.1181C24.5783 8.65794 27.8595 7.19165 31.3334 7H32.1667Z" stroke="#63D8FF" stroke-width="5" stroke-linecap="round" stroke-linejoin="round"/>
<path d="M21.77 57.225C20.61 57.225 19.635 57.015 18.845 56.595C18.055 56.175 17.46 55.59 17.06 54.84C16.67 54.09 16.475 53.22 16.475 52.23C16.475 50.68 16.885 49.435 17.705 48.495C18.535 47.545 19.785 47.07 21.455 47.07C22.295 47.07 22.995 47.145 23.555 47.295C24.125 47.445 24.645 47.69 25.115 48.03V50.1H22.34V48.915C22.08 48.855 21.785 48.825 21.455 48.825C20.715 48.825 20.155 49.125 19.775 49.725C19.395 50.315 19.205 51.15 19.205 52.23C19.205 53.29 19.42 54.095 19.85 54.645C20.29 55.195 20.98 55.47 21.92 55.47C22.39 55.47 22.81 55.42 23.18 55.32C23.55 55.22 23.93 55.035 24.32 54.765L25.235 56.235C24.675 56.625 24.15 56.885 23.66 57.015C23.18 57.155 22.55 57.225 21.77 57.225ZM25.6889 55.26H26.0039C26.2139 55.26 26.3639 55.21 26.4539 55.11C26.5539 55.01 26.6039 54.86 26.6039 54.66V49.605C26.6039 49.235 26.4039 49.05 26.0039 49.05H25.6889V47.295H30.1439V49.05H29.9789C29.5789 49.05 29.3789 49.235 29.3789 49.605V51.27H31.8989V49.65C31.8989 49.45 31.8489 49.3 31.7489 49.2C31.6589 49.1 31.5089 49.05 31.2989 49.05H31.1339V47.295H35.6039V49.05H35.2889C34.8789 49.05 34.6739 49.235 34.6739 49.605V54.66C34.6739 55.06 34.8789 55.26 35.2889 55.26H35.6039V57H31.1339V55.26H31.2989C31.5089 55.26 31.6589 55.21 31.7489 55.11C31.8489 55.01 31.8989 54.86 31.8989 54.66V53.01H29.3789V54.66C29.3789 55.06 29.5839 55.26 29.9939 55.26H30.1439V57H25.6889V55.26ZM35.6791 55.26H36.0391C36.3191 55.26 36.5091 55.23 36.6091 55.17C36.7191 55.11 36.8141 54.97 36.8941 54.75L39.4591 47.295H42.1741L44.6941 54.75C44.7741 54.97 44.8641 55.11 44.9641 55.17C45.0741 55.23 45.2691 55.26 45.5491 55.26H45.9091V57H41.5291V55.26H42.0991L41.7841 54.165H39.8341L39.5041 55.26H40.0741V57H35.6791V55.26ZM41.3941 52.8L40.8391 50.805L40.2391 52.8H41.3941ZM46.7028 55.245H47.0178C47.4178 55.245 47.6178 55.06 47.6178 54.69V49.08H46.8378C46.4278 49.08 46.2228 49.275 46.2228 49.665V50.325H44.3328V47.34H53.6778V50.325H51.7878V49.665C51.7878 49.275 51.5828 49.08 51.1728 49.08H50.3928V54.69C50.3928 54.86 50.4428 54.995 50.5428 55.095C50.6528 55.195 50.8078 55.245 51.0078 55.245H51.3228V57H46.7028V55.245Z" fill="#62CCEF"/>
</svg>
