<svg width="73" height="72" viewBox="0 0 73 72" fill="none" xmlns="http://www.w3.org/2000/svg">
<path d="M32 39.6663V22.9997H42V39.6663M22 17.9997L37 6.33301L52 17.9997V36.333C52 37.2171 51.6488 38.0649 51.0237 38.69C50.3986 39.3152 49.5507 39.6663 48.6667 39.6663H25.3333C24.4493 39.6663 23.6014 39.3152 22.9763 38.69C22.3512 38.0649 22 37.2171 22 36.333V17.9997Z" stroke="#63D8FF" stroke-width="4" stroke-linecap="round" stroke-linejoin="round"/>
<path d="M19.2426 57.26H19.5576C19.7676 57.26 19.9176 57.21 20.0076 57.11C20.1076 57.01 20.1576 56.86 20.1576 56.66V51.605C20.1576 51.235 19.9576 51.05 19.5576 51.05H19.2426V49.295H23.6976V51.05H23.5326C23.1326 51.05 22.9326 51.235 22.9326 51.605V53.27H25.4526V51.65C25.4526 51.45 25.4026 51.3 25.3026 51.2C25.2126 51.1 25.0626 51.05 24.8526 51.05H24.6876V49.295H29.1576V51.05H28.8426C28.4326 51.05 28.2276 51.235 28.2276 51.605V56.66C28.2276 57.06 28.4326 57.26 28.8426 57.26H29.1576V59H24.6876V57.26H24.8526C25.0626 57.26 25.2126 57.21 25.3026 57.11C25.4026 57.01 25.4526 56.86 25.4526 56.66V55.01H22.9326V56.66C22.9326 57.06 23.1376 57.26 23.5476 57.26H23.6976V59H19.2426V57.26ZM33.7398 59.225C32.1198 59.225 30.9148 58.81 30.1248 57.98C29.3348 57.14 28.9398 55.875 28.9398 54.185C28.9398 52.465 29.3248 51.185 30.0948 50.345C30.8648 49.495 32.0798 49.07 33.7398 49.07C35.3998 49.07 36.6148 49.495 37.3848 50.345C38.1548 51.185 38.5398 52.465 38.5398 54.185C38.5398 55.875 38.1448 57.14 37.3548 57.98C36.5648 58.81 35.3598 59.225 33.7398 59.225ZM33.7398 57.47C34.2498 57.47 34.6498 57.365 34.9398 57.155C35.2398 56.935 35.4548 56.59 35.5848 56.12C35.7248 55.64 35.7948 54.995 35.7948 54.185C35.7948 53.345 35.7248 52.685 35.5848 52.205C35.4548 51.715 35.2398 51.365 34.9398 51.155C34.6498 50.935 34.2498 50.825 33.7398 50.825C33.2298 50.825 32.8248 50.935 32.5248 51.155C32.2348 51.365 32.0198 51.715 31.8798 52.205C31.7498 52.685 31.6848 53.345 31.6848 54.185C31.6848 54.995 31.7498 55.64 31.8798 56.12C32.0198 56.59 32.2348 56.935 32.5248 57.155C32.8248 57.365 33.2298 57.47 33.7398 57.47ZM38.3881 57.26H38.7031C39.1131 57.26 39.3181 57.06 39.3181 56.66V51.62C39.3181 51.23 39.1131 51.035 38.7031 51.035H38.3881V49.295H42.0031L43.9681 53.795L45.9181 49.295H49.5331V51.035H49.2181C48.8181 51.035 48.6181 51.23 48.6181 51.62V56.66C48.6181 56.86 48.6631 57.01 48.7531 57.11C48.8531 57.21 49.0081 57.26 49.2181 57.26H49.5331V59H44.9581V57.26H45.2731C45.6831 57.26 45.8881 57.075 45.8881 56.705V53.435L44.7631 56.045H43.1581L42.0331 53.435V56.705C42.0331 57.075 42.2381 57.26 42.6481 57.26H42.9631V59H38.3881V57.26ZM49.9896 57.26H50.3046C50.7146 57.26 50.9196 57.06 50.9196 56.66V51.605C50.9196 51.235 50.7146 51.05 50.3046 51.05H49.9896V49.295H57.7596V51.815H55.2396V51.62C55.2396 51.23 55.0346 51.035 54.6246 51.035H53.6946V53.285H55.4196V55.025H53.6946V57.26H54.6246C55.0346 57.26 55.2396 57.06 55.2396 56.66V56.48H57.7596V59H49.9896V57.26Z" fill="#62CCEF"/>
</svg>
