<svg width="32" height="35" viewBox="0 0 32 35" fill="none" xmlns="http://www.w3.org/2000/svg">
<path d="M18.1482 30.2083C17.8918 30.6503 17.5238 31.0172 17.081 31.2722C16.6382 31.5273 16.1362 31.6615 15.6252 31.6615C15.1143 31.6615 14.6123 31.5273 14.1695 31.2722C13.7267 31.0172 13.3587 30.6503 13.1023 30.2083M24.3752 11.25C24.3752 8.92936 23.4534 6.70376 21.8124 5.06282C20.1715 3.42187 17.9459 2.5 15.6252 2.5C13.3046 2.5 11.079 3.42187 9.43806 5.06282C7.79712 6.70376 6.87524 8.92936 6.87524 11.25C6.87524 21.4583 2.50024 24.375 2.50024 24.375H28.7502C28.7502 24.375 24.3752 21.4583 24.3752 11.25Z" stroke="#62CCEF" stroke-width="5" stroke-linecap="round" stroke-linejoin="round"/>
</svg>
