<svg width="66" height="64" viewBox="0 0 66 64" fill="none" xmlns="http://www.w3.org/2000/svg">
<g clip-path="url(#clip0_1478_4486)">
<path d="M34 15V21.5M34 28H34.0158M49.8333 21.5C49.8333 30.4746 42.7445 37.75 34 37.75C25.2555 37.75 18.1666 30.4746 18.1666 21.5C18.1666 12.5254 25.2555 5.25 34 5.25C42.7445 5.25 49.8333 12.5254 49.8333 21.5Z" stroke="#63D8FF" stroke-width="5" stroke-linecap="round" stroke-linejoin="round"/>
</g>
<path d="M6.2665 55.26H6.5815C6.9915 55.26 7.1965 55.075 7.1965 54.705V49.605C7.1965 49.235 6.9915 49.05 6.5815 49.05H6.2665V47.295H11.6515C12.8015 47.295 13.7015 47.56 14.3515 48.09C15.0015 48.62 15.3265 49.405 15.3265 50.445C15.3265 51.775 14.7115 52.74 13.4815 53.34L14.3815 54.855C14.4615 55.005 14.5615 55.11 14.6815 55.17C14.8115 55.23 14.9865 55.26 15.2065 55.26H15.4465V57H11.5165V55.26H11.9965L11.0665 53.685H9.9715V54.78C9.9715 54.96 10.0015 55.085 10.0615 55.155C10.1315 55.225 10.2515 55.26 10.4215 55.26H10.6015V57H6.2665V55.26ZM11.2615 51.945C11.7315 51.945 12.0665 51.825 12.2665 51.585C12.4765 51.345 12.5815 50.965 12.5815 50.445C12.5815 49.925 12.4765 49.565 12.2665 49.365C12.0665 49.155 11.7315 49.05 11.2615 49.05H9.9715V51.945H11.2615ZM15.8905 55.26H16.2055C16.6155 55.26 16.8205 55.06 16.8205 54.66V49.605C16.8205 49.235 16.6155 49.05 16.2055 49.05H15.8905V47.295H23.6605V49.815H21.1405V49.62C21.1405 49.23 20.9355 49.035 20.5255 49.035H19.5955V51.285H21.3205V53.025H19.5955V55.26H20.5255C20.9355 55.26 21.1405 55.06 21.1405 54.66V54.48H23.6605V57H15.8905V55.26ZM24.1083 55.26H24.4083C24.8183 55.26 25.0233 55.075 25.0233 54.705V49.605C25.0233 49.235 24.8183 49.05 24.4083 49.05H24.1083V47.295H29.4933C30.6433 47.295 31.5383 47.56 32.1783 48.09C32.8283 48.62 33.1533 49.405 33.1533 50.445C33.1533 51.485 32.8233 52.29 32.1633 52.86C31.5133 53.42 30.6183 53.7 29.4783 53.7H27.7983V54.705C27.7983 55.075 28.0033 55.26 28.4133 55.26H28.7133V57H24.1083V55.26ZM29.1033 51.945C29.5633 51.945 29.8933 51.825 30.0933 51.585C30.3033 51.345 30.4083 50.965 30.4083 50.445C30.4083 49.925 30.3083 49.565 30.1083 49.365C29.9083 49.155 29.5733 49.05 29.1033 49.05H27.7983V51.945H29.1033ZM38.0196 57.225C36.3996 57.225 35.1946 56.81 34.4046 55.98C33.6146 55.14 33.2196 53.875 33.2196 52.185C33.2196 50.465 33.6046 49.185 34.3746 48.345C35.1446 47.495 36.3596 47.07 38.0196 47.07C39.6796 47.07 40.8946 47.495 41.6646 48.345C42.4346 49.185 42.8196 50.465 42.8196 52.185C42.8196 53.875 42.4246 55.14 41.6346 55.98C40.8446 56.81 39.6396 57.225 38.0196 57.225ZM38.0196 55.47C38.5296 55.47 38.9296 55.365 39.2196 55.155C39.5196 54.935 39.7346 54.59 39.8646 54.12C40.0046 53.64 40.0746 52.995 40.0746 52.185C40.0746 51.345 40.0046 50.685 39.8646 50.205C39.7346 49.715 39.5196 49.365 39.2196 49.155C38.9296 48.935 38.5296 48.825 38.0196 48.825C37.5096 48.825 37.1046 48.935 36.8046 49.155C36.5146 49.365 36.2996 49.715 36.1596 50.205C36.0296 50.685 35.9646 51.345 35.9646 52.185C35.9646 52.995 36.0296 53.64 36.1596 54.12C36.2996 54.59 36.5146 54.935 36.8046 55.155C37.1046 55.365 37.5096 55.47 38.0196 55.47ZM42.5946 55.26H42.9096C43.3196 55.26 43.5246 55.075 43.5246 54.705V49.605C43.5246 49.235 43.3196 49.05 42.9096 49.05H42.5946V47.295H47.9796C49.1296 47.295 50.0296 47.56 50.6796 48.09C51.3296 48.62 51.6546 49.405 51.6546 50.445C51.6546 51.775 51.0396 52.74 49.8096 53.34L50.7096 54.855C50.7896 55.005 50.8896 55.11 51.0096 55.17C51.1396 55.23 51.3146 55.26 51.5346 55.26H51.7746V57H47.8446V55.26H48.3246L47.3946 53.685H46.2996V54.78C46.2996 54.96 46.3296 55.085 46.3896 55.155C46.4596 55.225 46.5796 55.26 46.7496 55.26H46.9296V57H42.5946V55.26ZM47.5896 51.945C48.0596 51.945 48.3946 51.825 48.5946 51.585C48.8046 51.345 48.9096 50.965 48.9096 50.445C48.9096 49.925 48.8046 49.565 48.5946 49.365C48.3946 49.155 48.0596 49.05 47.5896 49.05H46.2996V51.945H47.5896ZM53.9113 55.245H54.2263C54.6263 55.245 54.8263 55.06 54.8263 54.69V49.08H54.0463C53.6363 49.08 53.4313 49.275 53.4313 49.665V50.325H51.5413V47.34H60.8863V50.325H58.9963V49.665C58.9963 49.275 58.7913 49.08 58.3813 49.08H57.6013V54.69C57.6013 54.86 57.6513 54.995 57.7513 55.095C57.8613 55.195 58.0163 55.245 58.2163 55.245H58.5313V57H53.9113V55.245Z" fill="#62CCEF"/>
<defs>
<clipPath id="clip0_1478_4486">
<rect width="38" height="39" fill="white" transform="translate(15 2)"/>
</clipPath>
</defs>
</svg>
