<svg width="16" height="16" viewBox="0 0 16 16" fill="none" xmlns="http://www.w3.org/2000/svg">
<g clip-path="url(#clip0_1620_4489)">
<path d="M11.96 11.9603C10.8204 12.829 9.4327 13.3102 7.99996 13.3337C3.33329 13.3337 0.666626 8.00033 0.666626 8.00033C1.49589 6.45492 2.64605 5.10473 4.03996 4.04033M6.59996 2.82699C7.05885 2.71958 7.52867 2.66588 7.99996 2.66699C12.6666 2.66699 15.3333 8.00033 15.3333 8.00033C14.9286 8.7574 14.446 9.47015 13.8933 10.127M9.41329 9.41366C9.23019 9.61016 9.00939 9.76776 8.76406 9.87707C8.51873 9.98639 8.25389 10.0452 7.98535 10.0499C7.71681 10.0546 7.45007 10.0052 7.20103 9.90465C6.952 9.80406 6.72577 9.65434 6.53586 9.46443C6.34594 9.27451 6.19622 9.04829 6.09563 8.79925C5.99504 8.55022 5.94564 8.28347 5.95038 8.01493C5.95512 7.74639 6.0139 7.48156 6.12321 7.23622C6.23252 6.99089 6.39013 6.77009 6.58663 6.58699M0.666626 0.666992L15.3333 15.3337" stroke="#1E1E1E" stroke-linecap="round" stroke-linejoin="round"/>
</g>
<defs>
<clipPath id="clip0_1620_4489">
<rect width="16" height="16" fill="white"/>
</clipPath>
</defs>
</svg>
