<svg width="120" height="100" viewBox="0 0 120 100" fill="none" xmlns="http://www.w3.org/2000/svg">
<path d="M38.1 9.57422C39.486 9.57422 40.872 9.57422 42.3 9.57422C42.3 10.5396 42.3 11.5051 42.3 12.4998C43.389 12.4998 44.478 12.4998 45.6 12.4998C45.6 11.5343 45.6 10.5689 45.6 9.57422C46.986 9.57422 48.372 9.57422 49.8 9.57422C49.8 10.5396 49.8 11.5051 49.8 12.4998C50.889 12.4998 51.978 12.4998 53.1 12.4998C53.1 11.5343 53.1 10.5689 53.1 9.57422C54.486 9.57422 55.872 9.57422 57.3 9.57422C57.3 10.5396 57.3 11.5051 57.3 12.4998C58.389 12.4998 59.478 12.4998 60.6 12.4998C60.6 11.5343 60.6 10.5689 60.6 9.57422C61.887 9.57422 63.174 9.57422 64.5 9.57422C64.5 10.6274 64.5 11.6806 64.5 12.7657C65.589 12.7657 66.678 12.7657 67.8 12.7657C67.8 11.7125 67.8 10.6593 67.8 9.57422C69.087 9.57422 70.374 9.57422 71.7 9.57422C71.7 10.6274 71.7 11.6806 71.7 12.7657C72.789 12.7657 73.878 12.7657 75 12.7657C75 11.7125 75 10.6593 75 9.57422C76.386 9.57422 77.772 9.57422 79.2 9.57422C79.2 10.5396 79.2 11.5051 79.2 12.4998C80.289 12.4998 81.378 12.4998 82.5 12.4998C82.5 11.5343 82.5 10.5689 82.5 9.57422C83.886 9.57422 85.272 9.57422 86.7 9.57422C87.3103 17.9204 87.3103 17.9204 85.5003 19.9371C84.4665 20.873 83.34 21.6509 82.1531 22.4289C81.0199 23.4575 81.085 24.5193 81.0703 25.9013C81.0759 26.2346 81.0814 26.5678 81.0871 26.9112C81.0866 27.2687 81.0854 27.6263 81.0833 27.9838C81.0806 28.7523 81.0835 29.5205 81.0908 30.289C81.1022 31.5081 81.1004 32.727 81.0969 33.9461C81.0919 36.3182 81.1003 38.6903 81.1099 41.0624C81.1215 44.0719 81.1263 47.0814 81.1204 50.091C81.1188 51.1022 81.1199 52.1134 81.1274 53.1246C81.2001 62.9119 81.2001 62.9119 78.5812 66.8216C78.4797 66.9837 78.3782 67.1459 78.2736 67.313C77.7433 68.1477 77.1722 68.9306 76.5 69.6806C81.5589 65.9622 84.1927 61.7103 84.9 55.8508C84.9839 54.6433 85.0105 53.4388 85.0242 52.2292C85.0329 51.7412 85.0329 51.7412 85.0418 51.2434C85.0595 50.2194 85.0736 49.1954 85.0875 48.1713C85.0989 47.4707 85.1107 46.7702 85.1226 46.0696C85.1512 44.3655 85.1768 42.6614 85.2 40.9572C86.8262 42.3416 86.8262 42.3416 87.3293 43.2448C87.4754 43.504 87.4754 43.504 87.6244 43.7683C87.7215 43.9487 87.8187 44.1291 87.9187 44.3149C88.022 44.5032 88.1253 44.6914 88.2318 44.8854C89.986 48.1321 91.0189 51.2356 90.9937 54.8535C90.9929 55.0956 90.9921 55.3376 90.9912 55.5871C90.956 57.6224 90.6238 59.4721 90 61.4359C89.9362 61.6471 89.8724 61.8583 89.8066 62.0759C89.6793 62.4852 89.5416 62.892 89.4 63.2976C90.81 61.9562 91.8304 60.5518 92.8453 58.955C93.1745 58.4405 93.5298 57.9388 93.9 57.4466C94.1638 63.9532 92.9707 69.2634 87.9 74.2019C87.6532 74.4422 87.4065 74.6825 87.1523 74.9301C83.5512 78.2753 79.0652 80.7549 74.1 82.1806C73.4023 79.282 72.7957 76.3826 72.3105 73.4497C72.2618 73.1584 72.2131 72.867 72.163 72.5668C71.9628 71.3653 71.7638 70.1637 71.5726 68.961C71.4299 68.0685 71.2801 67.177 71.1293 66.2855C71.0883 66.0165 71.0473 65.7474 71.0051 65.4703C70.6664 63.5164 69.9994 62.0074 68.3578 60.6318C65.9402 59.2585 63.4719 58.7378 60.6 59.0423C58.5151 59.491 56.5853 60.2 55.2 61.7019C54.4874 62.8254 54.1443 63.7815 53.9472 65.0554C53.8916 65.4003 53.8361 65.7451 53.7788 66.1004C53.7507 66.2829 53.7226 66.4654 53.6937 66.6534C53.5431 67.6294 53.3817 68.6041 53.2207 69.5788C53.1874 69.7813 53.1541 69.9838 53.1198 70.1925C52.7364 72.5005 52.2849 74.7973 51.825 77.0942C51.7858 77.2916 51.7466 77.4891 51.7062 77.6925C51.0547 80.9711 51.0547 80.9711 50.7 81.9146C49.0762 81.7702 47.8738 81.2621 46.4625 80.5848C46.2375 80.4773 46.0125 80.3697 45.7807 80.2589C39.3569 77.1178 34.0288 72.2309 31.8105 65.9333C31.0315 63.2058 31.1143 60.5072 31.2 57.7125C32.0342 58.6615 32.6933 59.6651 33.3621 60.7097C34.0542 61.6441 34.8629 62.4638 35.7 63.2976C35.5917 63.0353 35.4834 62.7731 35.3718 62.5029C33.181 56.7259 33.5426 50.5689 36.5625 45.1128C37.4497 43.5821 38.3812 42.0372 39.6 40.6912C39.699 40.6912 39.798 40.6912 39.9 40.6912C39.9036 40.9696 39.9036 40.9696 39.9073 41.2536C39.9309 43.0177 39.9571 44.7818 39.9862 46.5458C40.0011 47.4524 40.015 48.3589 40.0265 49.2654C40.0399 50.3119 40.0577 51.3584 40.0758 52.4048C40.0792 52.7244 40.0827 53.0439 40.0863 53.3732C40.2036 59.4464 42.1788 64.2963 47.1 68.6168C47.397 68.7923 47.694 68.9678 48 69.1487C47.8406 68.9169 47.6813 68.6852 47.5172 68.4464C44.7615 64.3604 43.6851 60.4793 43.7662 55.7149C43.7712 55.1819 43.7762 54.6489 43.7809 54.1158C43.7864 53.5486 43.7932 52.9814 43.8002 52.4142C43.8141 51.2253 43.8196 50.0366 43.8233 48.8477C43.8239 48.646 43.8246 48.4443 43.8253 48.2366C43.8266 47.8245 43.8278 47.4124 43.8291 47.0003C43.8377 44.2373 43.851 41.4746 43.8894 38.7118C43.9153 36.8413 43.9272 34.9711 43.9232 33.1004C43.9217 32.1135 43.927 31.1276 43.9495 30.1409C44.2511 25.444 44.2511 25.444 42.1483 21.3315C41.4959 20.7588 40.8132 20.2511 40.0819 19.76C38.9631 18.9582 38.163 18.1661 37.9297 16.8809C37.9375 16.5439 37.9454 16.2068 37.9535 15.8595C37.9556 15.6788 37.9577 15.4981 37.9599 15.3118C37.9683 14.7399 37.9871 14.1686 38.0062 13.5968C38.0138 13.2069 38.0206 12.817 38.0267 12.427C38.0419 11.4756 38.0713 10.5257 38.1 9.57422Z" fill="black"/>
<path d="M87.9 21.0107C89.2308 21.389 90.1128 22.0315 91.1062 22.8724C91.2632 23.0035 91.4202 23.1345 91.5819 23.2696C91.9034 23.5391 92.2238 23.8097 92.5432 24.0812C92.9532 24.4286 93.3688 24.7708 93.7851 25.1123C101.143 31.3229 106.01 40.9513 106.29 49.9596C106.296 50.5992 106.297 51.2388 106.294 51.8784C106.292 52.2162 106.291 52.5539 106.29 52.9019C106.253 55.6339 105.973 58.2397 105.3 60.9044C105.257 61.0801 105.213 61.2559 105.169 61.4371C102.96 70.1335 97.1598 78.1692 89.1 83.5107C88.8118 83.7038 88.5237 83.8968 88.2269 84.0956C79.6125 89.6278 79.6125 89.6278 75.6 89.6278C75.4491 88.8466 75.2992 88.0654 75.15 87.284C75.0856 86.9515 75.0856 86.9515 75.0199 86.6124C74.9793 86.3989 74.9387 86.1855 74.8968 85.9657C74.8591 85.7693 74.8214 85.5729 74.7826 85.3706C74.7 84.8405 74.7 84.8405 74.7 84.0427C75.0712 83.9403 75.0712 83.9403 75.45 83.8359C79.6424 82.6039 83.3777 80.7906 86.7 78.1916C86.9486 78.003 87.1973 77.8145 87.4535 77.6202C94.5825 72.1034 99.1229 64.4952 100.126 56.115C100.835 45.9138 97.7185 37.3049 90.1801 29.5142C88.7668 28.1003 87.21 26.9275 85.5 25.798C85.271 25.6454 85.0421 25.4929 84.8062 25.3357C84.6391 25.2249 84.4721 25.1142 84.3 25.0001C84.7712 24.0208 85.4593 23.3364 86.2687 22.5566C86.5104 22.3225 86.7521 22.0883 87.0011 21.8471C87.6 21.2767 87.6 21.2767 87.9 21.0107Z" fill="black"/>
<path d="M36.8873 20.8068C37.5683 21.0333 37.9012 21.2738 38.4046 21.7347C38.5632 21.8778 38.7217 22.0209 38.8851 22.1684C39.0467 22.3184 39.2084 22.4684 39.3749 22.6229C39.5412 22.774 39.7075 22.925 39.8788 23.0806C40.2879 23.4526 40.6942 23.8271 41.0999 24.2021C39.8682 25.3256 38.5572 26.2951 37.1742 27.2668C30.2306 32.4983 25.6804 40.634 24.8999 48.6701C24.3378 59.2298 27.4711 68.1049 35.557 76.0056C39.3793 79.5433 44.4627 82.6473 49.7999 84.0425C49.6744 85.963 49.5135 87.778 48.8999 89.6276C37.6383 86.4279 28.9993 79.1379 23.3331 70.0776C20.189 64.601 18.71 58.5317 18.7874 52.4102C18.7888 52.2122 18.7902 52.0143 18.7917 51.8103C18.8156 48.9164 18.9484 46.1597 19.7999 43.351C19.8595 43.1452 19.9191 42.9394 19.9805 42.7274C21.3327 38.1177 29.6605 20.0422 36.8873 20.8068Z" fill="black"/>
<path d="M52.8 81.3828C59.136 81.3828 65.472 81.3828 72 81.3828C72.297 83.0833 72.594 84.7837 72.9 86.5357C72.994 87.0724 73.0879 87.6091 73.1848 88.162C73.2586 88.5861 73.3325 89.0102 73.4062 89.4343C73.4451 89.6555 73.484 89.8767 73.524 90.1047C73.8 91.6945 73.8 91.6945 73.8 92.2871C67.4335 93.8402 57.0699 94.8449 51 92.0211C51.1583 90.8906 51.3182 89.7603 51.4797 88.6301C51.5343 88.2466 51.5884 87.8631 51.642 87.4795C51.7198 86.9241 51.7992 86.3689 51.8789 85.8137C51.926 85.4808 51.9732 85.148 52.0217 84.805C52.2211 83.6548 52.5152 82.5188 52.8 81.3828Z" fill="black"/>
<path d="M58.5 29.2549C61.074 29.2549 63.648 29.2549 66.3 29.2549C66.3 34.4331 66.3 39.6113 66.3 44.9464C63.726 44.9464 61.152 44.9464 58.5 44.9464C58.5 39.7682 58.5 34.59 58.5 29.2549Z" fill="#62CCEF"/>
<path d="M39.5999 40.6914C39.6989 40.6914 39.7979 40.6914 39.8999 40.6914C39.8999 46.1329 39.8999 51.5744 39.8999 57.1808C39.8009 57.1808 39.7019 57.1808 39.5999 57.1808C39.3464 55.3977 39.2398 53.6432 39.205 51.8471C39.1988 51.5749 39.1926 51.3027 39.1861 51.0223C39.1667 50.1607 39.1489 49.2991 39.1312 48.4374C39.1182 47.8529 39.1051 47.2683 39.0919 46.6838C38.9769 41.5199 38.9769 41.5199 39.5999 40.6914Z" fill="black"/>
<path d="M57 9.57422C57.099 9.57422 57.198 9.57422 57.3 9.57422C57.3 10.5396 57.3 11.5051 57.3 12.4998C58.389 12.4998 59.478 12.4998 60.6 12.4998C60.6 11.5343 60.6 10.5689 60.6 9.57422C60.798 9.66198 60.996 9.74975 61.2 9.84018C61.2081 10.3222 61.2139 10.8043 61.2188 11.2863C61.2222 11.5548 61.2257 11.8232 61.2293 12.0998C61.2 12.7657 61.2 12.7657 60.9 13.0317C59.5994 13.0699 58.3015 13.0429 57 13.0317C57 11.8907 57 10.7498 57 9.57422Z" fill="black"/>
<path d="M85.5 23.4043C85.7062 24.0667 85.8 24.5689 85.8 25.266C86.5352 25.8965 86.5352 25.8965 87.45 26.5127C87.7563 26.7276 88.0626 26.9426 88.3782 27.1641C88.6164 27.3276 88.8546 27.4911 89.1 27.6596C89.001 27.8351 88.902 28.0107 88.8 28.1915C88.5758 28.028 88.3515 27.8645 88.1204 27.696C87.8249 27.481 87.5295 27.2661 87.225 27.0446C86.9327 26.8317 86.6403 26.6188 86.3391 26.3994C85.6691 25.9191 84.994 25.4526 84.3 25C84.6456 24.3437 84.9144 23.9235 85.5 23.4043Z" fill="black"/>
<path d="M81.3 87.7658C80.632 88.0279 79.9632 88.288 79.2937 88.5471C79.0121 88.6579 79.0121 88.6579 78.7248 88.771C77.6895 89.1698 76.7175 89.4779 75.6 89.6275C75.6 89.0132 75.6 88.3988 75.6 87.7658C75.798 88.1169 75.996 88.468 76.2 88.8297C76.6754 88.709 77.1503 88.5868 77.625 88.464C77.8895 88.3961 78.154 88.3282 78.4265 88.2583C79.1964 88.0554 79.1964 88.0554 79.8422 87.7222C80.4 87.4999 80.4 87.4999 81.3 87.7658Z" fill="black"/>
<path d="M31.2 57.7129C32.021 58.6834 32.6731 59.5667 33.3 60.6384C33.201 60.814 33.102 60.9895 33 61.1703C32.604 60.6437 32.208 60.1171 31.8 59.5746C31.701 60.3645 31.602 61.1544 31.5 61.9682C31.401 61.9682 31.302 61.9682 31.2 61.9682C31.2 60.564 31.2 59.1597 31.2 57.7129Z" fill="black"/>
<path d="M87.9 21.0107C88.098 21.0985 88.296 21.1863 88.5 21.2767C87.807 21.9788 87.114 22.681 86.4 23.4044C86.301 23.1411 86.202 22.8778 86.1 22.6065C86.694 22.0799 87.288 21.5533 87.9 21.0107Z" fill="black"/>
</svg>
