<svg width="137" height="112" viewBox="0 0 137 112" fill="none" xmlns="http://www.w3.org/2000/svg">
<path d="M43.4976 10.7234C45.08 10.7234 46.6623 10.7234 48.2926 10.7234C48.2926 11.8047 48.2926 12.8859 48.2926 14C49.5359 14 50.7792 14 52.0601 14C52.0601 12.9187 52.0601 11.8374 52.0601 10.7234C53.6425 10.7234 55.2248 10.7234 56.8551 10.7234C56.8551 11.8047 56.8551 12.8859 56.8551 14C58.0984 14 59.3417 14 60.6226 14C60.6226 12.9187 60.6226 11.8374 60.6226 10.7234C62.205 10.7234 63.7873 10.7234 65.4176 10.7234C65.4176 11.8047 65.4176 12.8859 65.4176 14C66.6609 14 67.9042 14 69.1851 14C69.1851 12.9187 69.1851 11.8374 69.1851 10.7234C70.6544 10.7234 72.1238 10.7234 73.6376 10.7234C73.6376 11.903 73.6376 13.0825 73.6376 14.2979C74.8809 14.2979 76.1242 14.2979 77.4051 14.2979C77.4051 13.1183 77.4051 11.9387 77.4051 10.7234C78.8744 10.7234 80.3438 10.7234 81.8576 10.7234C81.8576 11.903 81.8576 13.0825 81.8576 14.2979C83.1009 14.2979 84.3442 14.2979 85.6251 14.2979C85.6251 13.1183 85.6251 11.9387 85.6251 10.7234C87.2075 10.7234 88.7898 10.7234 90.4201 10.7234C90.4201 11.8047 90.4201 12.8859 90.4201 14C91.6634 14 92.9067 14 94.1876 14C94.1876 12.9187 94.1876 11.8374 94.1876 10.7234C95.77 10.7234 97.3523 10.7234 98.9826 10.7234C99.6794 20.0711 99.6794 20.0711 97.6129 22.3298C96.4328 23.3781 95.1467 24.2493 93.7916 25.1206C92.4978 26.2726 92.5722 27.4619 92.5554 29.0097C92.5618 29.383 92.5681 29.7562 92.5746 30.1408C92.5741 30.5412 92.5726 30.9417 92.5703 31.3421C92.5672 32.2028 92.5705 33.0633 92.5788 33.9239C92.5918 35.2893 92.5898 36.6545 92.5858 38.0199C92.58 40.6767 92.5896 43.3334 92.6007 45.9901C92.6138 49.3608 92.6193 52.7315 92.6126 56.1022C92.6107 57.2348 92.612 58.3672 92.6206 59.4998C92.7035 70.4616 92.7035 70.4616 89.7137 74.8404C89.5978 75.022 89.4819 75.2037 89.3625 75.3908C88.7571 76.3256 88.105 77.2025 87.3376 78.0425C93.1133 73.8779 96.1202 69.1158 96.9276 62.5532C97.0235 61.2008 97.0538 59.8517 97.0694 58.497C97.0794 57.9505 97.0794 57.9505 97.0895 57.3929C97.1098 56.246 97.1258 55.0991 97.1417 53.9521C97.1548 53.1675 97.1682 52.3828 97.1818 51.5982C97.2144 49.6896 97.2436 47.781 97.2701 45.8723C99.1267 47.4229 99.1267 47.4229 99.7011 48.4345C99.8679 48.7247 99.8679 48.7247 100.038 49.0208C100.149 49.2228 100.26 49.4248 100.374 49.633C100.492 49.8438 100.61 50.0547 100.731 50.2719C102.734 53.9082 103.913 57.3841 103.885 61.4362C103.884 61.7073 103.883 61.9784 103.882 62.2578C103.842 64.5373 103.462 66.609 102.75 68.8085C102.677 69.045 102.604 69.2816 102.529 69.5252C102.384 69.9837 102.227 70.4393 102.065 70.8936C103.675 69.3912 104.84 67.8183 105.999 66.0299C106.374 65.4536 106.78 64.8917 107.203 64.3404C107.504 71.6278 106.142 77.5753 100.353 83.1064C100.071 83.3755 99.7893 83.6447 99.499 83.922C95.3878 87.6686 90.2662 90.4458 84.5976 92.0425C83.8012 88.7961 83.1086 85.5487 82.5547 82.2639C82.4991 81.9376 82.4435 81.6113 82.3862 81.2751C82.1577 79.9294 81.9305 78.5836 81.7122 77.2366C81.5492 76.2369 81.3783 75.2385 81.2061 74.24C81.1593 73.9387 81.1125 73.6374 81.0643 73.327C80.6776 71.1387 79.9161 69.4486 78.042 67.9079C75.2819 66.3698 72.4639 65.7867 69.1851 66.1276C66.8049 66.6302 64.6017 67.4243 63.0201 69.1064C62.2066 70.3647 61.8148 71.4355 61.5899 72.8624C61.5264 73.2486 61.463 73.6348 61.3976 74.0327C61.3655 74.2371 61.3335 74.4415 61.3005 74.652C61.1286 75.7452 60.9443 76.8368 60.7604 77.9285C60.7224 78.1553 60.6844 78.3822 60.6453 78.6159C60.2076 81.2008 59.6921 83.7733 59.167 86.3457C59.1222 86.5669 59.0775 86.788 59.0314 87.0159C58.2876 90.6879 58.2876 90.6879 57.8826 91.7447C56.0288 91.5829 54.6561 91.0138 53.0448 90.2553C52.788 90.1348 52.5311 90.0144 52.2665 89.8902C44.9326 86.3722 38.8496 80.8989 36.3172 73.8456C35.4278 70.7907 35.5224 67.7683 35.6201 64.6383C36.5725 65.7011 37.325 66.8252 38.0885 67.9952C38.8786 69.0416 39.802 69.9597 40.7576 70.8936C40.634 70.5999 40.5104 70.3061 40.383 70.0035C37.8818 63.5333 38.2946 56.6374 41.7423 50.5266C42.7553 48.8122 43.8186 47.0819 45.2101 45.5745C45.3231 45.5745 45.4362 45.5745 45.5526 45.5745C45.5568 45.8862 45.5568 45.8862 45.561 46.2043C45.5879 48.1801 45.6179 50.1558 45.6511 52.1316C45.6681 53.1469 45.6839 54.1622 45.6971 55.1776C45.7124 56.3496 45.7327 57.5216 45.7533 58.6936C45.7573 59.0516 45.7612 59.4095 45.7653 59.7782C45.8992 66.5802 48.1543 72.0122 53.7726 76.851C54.1117 77.0476 54.4508 77.2442 54.8001 77.4468C54.6182 77.1872 54.4363 76.9277 54.2489 76.6602C51.1029 72.0839 49.874 67.737 49.9666 62.401C49.9723 61.804 49.978 61.207 49.9834 60.61C49.9896 59.9747 49.9974 59.3394 50.0054 58.7041C50.0212 57.3727 50.0276 56.0412 50.0317 54.7097C50.0325 54.4838 50.0332 54.2579 50.034 54.0252C50.0355 53.5637 50.0369 53.1021 50.0384 52.6406C50.0482 49.5461 50.0634 46.4518 50.1072 43.3575C50.1368 41.2625 50.1503 39.1679 50.1458 37.0727C50.1441 35.9674 50.1501 34.8631 50.1759 33.7581C50.5202 28.4975 50.5202 28.4975 48.1194 23.8915C47.3746 23.2501 46.5952 22.6815 45.7603 22.1315C44.483 21.2334 43.5696 20.3463 43.3032 18.9069C43.3122 18.5294 43.3211 18.1519 43.3304 17.7629C43.3328 17.5605 43.3352 17.3581 43.3377 17.1495C43.3472 16.5089 43.3687 15.8691 43.3906 15.2287C43.3992 14.792 43.407 14.3553 43.414 13.9185C43.4313 12.8529 43.4648 11.7891 43.4976 10.7234Z" fill="white"/>
<path d="M100.352 23.5319C101.872 23.9555 102.879 24.6751 104.013 25.617C104.192 25.7637 104.371 25.9105 104.556 26.0617C104.923 26.3637 105.289 26.6667 105.654 26.9708C106.122 27.3599 106.596 27.7431 107.071 28.1256C115.472 35.0815 121.028 45.8653 121.348 55.9546C121.355 56.6709 121.356 57.3873 121.352 58.1037C121.351 58.4819 121.349 58.8602 121.348 59.2499C121.306 62.3098 120.986 65.2283 120.217 68.2127C120.168 68.4096 120.118 68.6065 120.067 68.8093C117.546 78.5493 110.924 87.5493 101.722 93.5319C101.394 93.748 101.065 93.9642 100.726 94.187C90.891 100.383 90.891 100.383 86.31 100.383C86.1377 99.5081 85.9666 98.6331 85.7962 97.7579C85.7227 97.3856 85.7227 97.3856 85.6477 97.0057C85.6014 96.7667 85.555 96.5276 85.5072 96.2814C85.4642 96.0614 85.4211 95.8415 85.3768 95.6149C85.2825 95.0212 85.2825 95.0212 85.2825 94.1276C85.7063 94.013 85.7063 94.013 86.1387 93.8961C90.9251 92.5162 95.1896 90.4853 98.9825 87.5744C99.2664 87.3632 99.5502 87.152 99.8427 86.9345C107.982 80.7557 113.165 72.2344 114.311 62.8487C115.121 51.4233 111.562 41.7813 102.956 33.0557C101.342 31.4721 99.5648 30.1586 97.6125 28.8936C97.3511 28.7227 97.0897 28.5518 96.8204 28.3758C96.6297 28.2518 96.439 28.1277 96.2425 27.9999C96.7805 26.9031 97.566 26.1366 98.4901 25.2632C98.7661 25.001 99.042 24.7387 99.3263 24.4685C100.01 23.8297 100.01 23.8297 100.352 23.5319Z" fill="white"/>
<path d="M42.1131 23.3036C42.8906 23.5573 43.2706 23.8267 43.8454 24.3429C44.0264 24.5032 44.2074 24.6635 44.3939 24.8287C44.5785 24.9967 44.763 25.1646 44.9532 25.3377C45.143 25.5069 45.3329 25.676 45.5285 25.8503C45.9955 26.267 46.4593 26.6864 46.9225 27.1063C45.5163 28.3647 44.0196 29.4505 42.4406 30.5389C34.5134 36.3981 29.3185 45.5101 28.4275 54.5106C27.7858 66.3374 31.363 76.2775 40.5943 85.1263C44.9582 89.0885 50.7617 92.565 56.855 94.1276C56.7118 96.2786 56.5281 98.3114 55.8275 100.383C42.9705 96.7993 33.1077 88.6345 26.6388 78.487C23.0492 72.3531 21.3607 65.5555 21.4491 58.6994C21.4507 58.4777 21.4523 58.256 21.4539 58.0276C21.4812 54.7864 21.6329 51.6989 22.605 48.5532C22.6731 48.3227 22.7411 48.0922 22.8112 47.8547C24.3549 42.6918 33.8625 22.4473 42.1131 23.3036Z" fill="white"/>
<path d="M60.2801 91.1489C67.5137 91.1489 74.7473 91.1489 82.2001 91.1489C82.5392 93.0534 82.8782 94.958 83.2276 96.9202C83.3349 97.5213 83.4422 98.1223 83.5527 98.7416C83.637 99.2166 83.7213 99.6916 83.8056 100.167C83.8499 100.414 83.8943 100.662 83.94 100.917C84.2551 102.698 84.2551 102.698 84.2551 103.362C76.9867 105.101 65.1549 106.226 58.2251 103.064C58.4058 101.798 58.5884 100.532 58.7728 99.2659C58.8351 98.8364 58.8969 98.4068 58.9581 97.9772C59.0469 97.3552 59.1375 96.7333 59.2285 96.1115C59.2823 95.7387 59.3361 95.3659 59.3916 94.9818C59.6192 93.6936 59.955 92.4212 60.2801 91.1489Z" fill="white"/>
<path d="M67 35C69.9386 35 72.8773 35 75.905 35C75.905 40.7996 75.905 46.5991 75.905 52.5745C72.9663 52.5745 70.0277 52.5745 67 52.5745C67 46.7749 67 40.9753 67 35Z" fill="#000B58"/>
<path d="M45.21 45.5745C45.323 45.5745 45.4361 45.5745 45.5525 45.5745C45.5525 51.6689 45.5525 57.7634 45.5525 64.0425C45.4395 64.0425 45.3265 64.0425 45.21 64.0425C44.9205 62.0455 44.7989 60.0805 44.7591 58.0688C44.752 57.764 44.7449 57.4591 44.7376 57.1451C44.7154 56.1801 44.6951 55.215 44.6749 54.25C44.66 53.5953 44.6451 52.9406 44.63 52.2859C44.4988 46.5023 44.4988 46.5023 45.21 45.5745Z" fill="white"/>
<path d="M65.075 10.7234C65.188 10.7234 65.301 10.7234 65.4175 10.7234C65.4175 11.8047 65.4175 12.8859 65.4175 14C66.6607 14 67.904 14 69.185 14C69.185 12.9187 69.185 11.8374 69.185 10.7234C69.411 10.8217 69.6371 10.92 69.87 11.0213C69.8792 11.5611 69.8858 12.101 69.8914 12.6409C69.8953 12.9416 69.8993 13.2422 69.9034 13.552C69.87 14.2979 69.87 14.2979 69.5275 14.5957C68.0426 14.6386 66.5609 14.6083 65.075 14.5957C65.075 13.3179 65.075 12.04 65.075 10.7234Z" fill="white"/>
<path d="M97.6124 26.2128C97.8478 26.9547 97.9549 27.5171 97.9549 28.2979C98.7942 29.0041 98.7942 29.0041 99.8387 29.6942C100.188 29.9349 100.538 30.1757 100.898 30.4237C101.17 30.6069 101.442 30.79 101.722 30.9787C101.609 31.1753 101.496 31.3719 101.38 31.5745C101.124 31.3913 100.868 31.2082 100.604 31.0195C100.267 30.7787 99.9293 30.5379 99.5818 30.2899C99.248 30.0514 98.9143 29.813 98.5704 29.5673C97.8054 29.0293 97.0347 28.5069 96.2424 28C96.6369 27.2649 96.9438 26.7943 97.6124 26.2128Z" fill="white"/>
<path d="M92.8176 98.2979C92.0549 98.5914 91.2914 98.8827 90.5271 99.1729C90.2056 99.297 90.2056 99.297 89.8775 99.4237C88.6956 99.8704 87.5859 100.215 86.3101 100.383C86.3101 99.6949 86.3101 99.0069 86.3101 98.2979C86.5361 98.6911 86.7622 99.0843 86.9951 99.4894C87.5378 99.3543 88.08 99.2174 88.6219 99.0798C88.9239 99.0038 89.2259 98.9278 89.5371 98.8494C90.416 98.6222 90.416 98.6222 91.1532 98.249C91.7901 98 91.7901 98 92.8176 98.2979Z" fill="white"/>
<path d="M35.6201 64.6383C36.5575 65.7253 37.302 66.7146 38.0176 67.9149C37.9046 68.1115 37.7916 68.3081 37.6751 68.5106C37.223 67.9209 36.7709 67.3311 36.3051 66.7234C36.1921 67.6081 36.0791 68.4928 35.9626 69.4043C35.8496 69.4043 35.7366 69.4043 35.6201 69.4043C35.6201 67.8315 35.6201 66.2587 35.6201 64.6383Z" fill="white"/>
<path d="M100.353 23.5319C100.579 23.6302 100.805 23.7285 101.038 23.8297C100.246 24.6161 99.4553 25.4025 98.6401 26.2127C98.5271 25.9178 98.4141 25.6229 98.2976 25.3191C98.9758 24.7293 99.6539 24.1395 100.353 23.5319Z" fill="white"/>
</svg>
