<svg width="30" height="30" viewBox="0 0 30 30" fill="none" xmlns="http://www.w3.org/2000/svg">
<path d="M14.375 3.75C16.0249 3.7457 17.6524 4.13116 19.125 4.875C20.8897 5.75696 22.374 7.11281 23.4116 8.79069C24.4493 10.4686 24.9993 12.4022 25 14.375C25.0043 16.0248 24.6189 17.6524 23.875 19.125L26.25 26.25L19.125 23.875C17.6524 24.6188 16.0249 25.0043 14.375 25C12.4022 24.9992 10.4686 24.4492 8.79072 23.4116C7.11285 22.374 5.75699 20.8897 4.87504 19.125C4.1312 17.6524 3.74573 16.0248 3.75004 14.375V13.75C3.89378 11.1446 4.99349 8.6837 6.83861 6.83857C8.68373 4.99345 11.1446 3.89374 13.75 3.75H14.375Z" stroke="#62CCEF" stroke-width="4" stroke-linecap="round" stroke-linejoin="round"/>
</svg>
