<svg width="71" height="68" viewBox="0 0 71 68" fill="none" xmlns="http://www.w3.org/2000/svg">
<g clip-path="url(#clip0_1744_4506)">
<path d="M21.4903 61.225C19.8403 61.225 18.4903 60.79 17.4403 59.92V58.045H20.2303V59.2C20.5603 59.38 20.9803 59.47 21.4903 59.47C21.8603 59.47 22.1353 59.4 22.3153 59.26C22.4953 59.11 22.5853 58.875 22.5853 58.555C22.5853 58.335 22.5153 58.15 22.3753 58C22.2453 57.85 22.0653 57.72 21.8353 57.61C21.6053 57.49 21.2103 57.31 20.6503 57.07C19.9103 56.75 19.3203 56.45 18.8803 56.17C18.4403 55.88 18.1003 55.55 17.8603 55.18C17.6303 54.81 17.5153 54.36 17.5153 53.83C17.5153 52.93 17.8903 52.245 18.6403 51.775C19.3903 51.305 20.3403 51.07 21.4903 51.07C22.3403 51.07 23.0503 51.19 23.6203 51.43C24.1903 51.67 24.7053 52 25.1653 52.42V54.1H22.3753V53.08C22.0853 52.91 21.7403 52.825 21.3403 52.825C20.6203 52.825 20.2603 53.125 20.2603 53.725C20.2603 53.975 20.3453 54.195 20.5153 54.385C20.6953 54.565 20.8903 54.71 21.1003 54.82C21.3203 54.92 21.6353 55.055 22.0453 55.225C22.9453 55.595 23.6053 55.9 24.0253 56.14C24.4453 56.37 24.7653 56.66 24.9853 57.01C25.2153 57.36 25.3303 57.825 25.3303 58.405C25.3303 58.945 25.1803 59.43 24.8803 59.86C24.5903 60.28 24.1553 60.615 23.5753 60.865C22.9953 61.105 22.3003 61.225 21.4903 61.225ZM26.9453 53.8C26.8753 53.49 26.7653 53.29 26.6153 53.2C26.4753 53.1 26.2303 53.05 25.8803 53.05H25.7753V51.295H28.9253L29.9153 56.08L30.9353 52.93H32.8553L33.8753 56.08L34.8653 51.295H38.0153V53.05H37.9103C37.5603 53.05 37.3103 53.1 37.1603 53.2C37.0203 53.29 36.9153 53.49 36.8453 53.8L35.2553 61H33.0503L31.8953 57.73L30.7403 61H28.5353L26.9453 53.8ZM35.8388 59.26H36.1988C36.4788 59.26 36.6688 59.23 36.7688 59.17C36.8788 59.11 36.9738 58.97 37.0538 58.75L39.6188 51.295H42.3338L44.8538 58.75C44.9338 58.97 45.0238 59.11 45.1238 59.17C45.2338 59.23 45.4288 59.26 45.7088 59.26H46.0688V61H41.6888V59.26H42.2588L41.9438 58.165H39.9938L39.6638 59.26H40.2338V61H35.8388V59.26ZM41.5538 56.8L40.9988 54.805L40.3988 56.8H41.5538ZM46.5175 59.26H46.8175C47.2275 59.26 47.4325 59.075 47.4325 58.705V53.605C47.4325 53.235 47.2275 53.05 46.8175 53.05H46.5175V51.295H51.9025C53.0525 51.295 53.9475 51.56 54.5875 52.09C55.2375 52.62 55.5625 53.405 55.5625 54.445C55.5625 55.485 55.2325 56.29 54.5725 56.86C53.9225 57.42 53.0275 57.7 51.8875 57.7H50.2075V58.705C50.2075 59.075 50.4125 59.26 50.8225 59.26H51.1225V61H46.5175V59.26ZM51.5125 55.945C51.9725 55.945 52.3025 55.825 52.5025 55.585C52.7125 55.345 52.8175 54.965 52.8175 54.445C52.8175 53.925 52.7175 53.565 52.5175 53.365C52.3175 53.155 51.9825 53.05 51.5125 53.05H50.2075V55.945H51.5125Z" fill="#666666"/>
<path d="M30.75 43.5C26.7083 43.5 23.2396 42.1875 20.3438 39.5625C17.4479 36.9375 16 33.6667 16 29.75C16 25.8333 17.4479 22.5625 20.3438 19.9375C23.2396 17.3125 26.7083 16 30.75 16H46.5L40 9.5L43.5 6L56 18.5L43.5 31L40 27.5L46.5 21H30.75C28.125 21 25.8438 21.8333 23.9063 23.5C21.9688 25.1667 21 27.25 21 29.75C21 32.25 21.9688 34.3333 23.9063 36C25.8438 37.6667 28.125 38.5 30.75 38.5H48.5V43.5H30.75Z" fill="#666666"/>
</g>
<defs>
<clipPath id="clip0_1744_4506">
<rect width="71" height="68" fill="white"/>
</clipPath>
</defs>
</svg>
