<svg width="26" height="29" viewBox="0 0 26 29" fill="none" xmlns="http://www.w3.org/2000/svg">
<path d="M15.1626 25.5C14.9429 25.8788 14.6274 26.1933 14.2479 26.4119C13.8684 26.6305 13.4381 26.7456 13.0001 26.7456C12.5621 26.7456 12.1319 26.6305 11.7523 26.4119C11.3728 26.1933 11.0574 25.8788 10.8376 25.5M20.5001 9.25C20.5001 7.26088 19.7099 5.35322 18.3034 3.9467C16.8969 2.54018 14.9892 1.75 13.0001 1.75C11.011 1.75 9.10334 2.54018 7.69682 3.9467C6.2903 5.35322 5.50012 7.26088 5.50012 9.25C5.50012 18 1.75012 20.5 1.75012 20.5H24.2501C24.2501 20.5 20.5001 18 20.5001 9.25Z" stroke="white" stroke-width="3.5" stroke-linecap="round" stroke-linejoin="round"/>
</svg>
